G04*
G04 #@! TF.GenerationSoftware,Altium Limited,Altium Designer,22.5.1 (42)*
G04*
G04 Layer_Color=8388736*
%FSLAX44Y44*%
%MOMM*%
G71*
G04*
G04 #@! TF.SameCoordinates,CF4701AC-517D-4BF5-B978-186F02F9A4D0*
G04*
G04*
G04 #@! TF.FilePolarity,Negative*
G04*
G01*
G75*
%ADD20R,3.2121X2.0542*%
%ADD21R,0.9534X2.0542*%
%ADD29R,1.1032X1.7532*%
%ADD30R,1.5532X3.0032*%
G04:AMPARAMS|DCode=31|XSize=0.8532mm|YSize=1.4032mm|CornerRadius=0.1504mm|HoleSize=0mm|Usage=FLASHONLY|Rotation=270.000|XOffset=0mm|YOffset=0mm|HoleType=Round|Shape=RoundedRectangle|*
%AMROUNDEDRECTD31*
21,1,0.8532,1.1025,0,0,270.0*
21,1,0.5525,1.4032,0,0,270.0*
1,1,0.3007,-0.5513,-0.2763*
1,1,0.3007,-0.5513,0.2763*
1,1,0.3007,0.5513,0.2763*
1,1,0.3007,0.5513,-0.2763*
%
%ADD31ROUNDEDRECTD31*%
%ADD32R,1.4732X3.8832*%
%ADD33R,2.0232X1.6432*%
%ADD34R,1.8032X1.6032*%
%ADD35R,1.6432X2.0232*%
G04:AMPARAMS|DCode=36|XSize=0.8532mm|YSize=1.8532mm|CornerRadius=0.1504mm|HoleSize=0mm|Usage=FLASHONLY|Rotation=180.000|XOffset=0mm|YOffset=0mm|HoleType=Round|Shape=RoundedRectangle|*
%AMROUNDEDRECTD36*
21,1,0.8532,1.5525,0,0,180.0*
21,1,0.5525,1.8532,0,0,180.0*
1,1,0.3007,-0.2763,0.7763*
1,1,0.3007,0.2763,0.7763*
1,1,0.3007,0.2763,-0.7763*
1,1,0.3007,-0.2763,-0.7763*
%
%ADD36ROUNDEDRECTD36*%
%ADD37R,1.0032X2.2032*%
%ADD38R,2.7032X1.0532*%
%ADD39R,1.7532X1.1032*%
%ADD40C,0.8032*%
D20*
X107500Y499250D02*
D03*
D21*
X130500Y435750D02*
D03*
X107500D02*
D03*
X84500D02*
D03*
D29*
X317500Y192500D02*
D03*
X285200D02*
D03*
X391350Y460000D02*
D03*
X423650D02*
D03*
X378850Y430000D02*
D03*
X411150D02*
D03*
X301150Y157500D02*
D03*
X268850D02*
D03*
X260000Y192500D02*
D03*
X227700D02*
D03*
X245200Y317500D02*
D03*
X277500D02*
D03*
D30*
X404500Y110000D02*
D03*
X372500D02*
D03*
X388000Y37500D02*
D03*
X420000D02*
D03*
X452000Y147500D02*
D03*
X420000D02*
D03*
Y212500D02*
D03*
X452000D02*
D03*
X362500Y147500D02*
D03*
X394500D02*
D03*
X379500Y212500D02*
D03*
X347500D02*
D03*
D31*
X419750Y65500D02*
D03*
Y75000D02*
D03*
Y84500D02*
D03*
X390250D02*
D03*
Y75000D02*
D03*
Y65500D02*
D03*
X392250Y170500D02*
D03*
Y180000D02*
D03*
Y189500D02*
D03*
X362750D02*
D03*
Y180000D02*
D03*
Y170500D02*
D03*
X449750Y189500D02*
D03*
Y180000D02*
D03*
Y170500D02*
D03*
X420250D02*
D03*
Y180000D02*
D03*
Y189500D02*
D03*
D32*
X214200Y447750D02*
D03*
Y497250D02*
D03*
X239600Y447750D02*
D03*
Y497250D02*
D03*
X265000Y447750D02*
D03*
Y497250D02*
D03*
X290400Y447750D02*
D03*
Y497250D02*
D03*
X315800Y447750D02*
D03*
Y497250D02*
D03*
D33*
X187500Y291720D02*
D03*
Y265000D02*
D03*
X332500Y345000D02*
D03*
Y371720D02*
D03*
Y322500D02*
D03*
Y295780D02*
D03*
X402500D02*
D03*
Y322500D02*
D03*
X425000Y295780D02*
D03*
Y322500D02*
D03*
X447500Y295780D02*
D03*
Y322500D02*
D03*
X472500Y302500D02*
D03*
Y275780D02*
D03*
X162500Y462500D02*
D03*
Y435780D02*
D03*
X212500Y265000D02*
D03*
Y291720D02*
D03*
X187500Y245000D02*
D03*
Y218280D02*
D03*
X212500Y245000D02*
D03*
Y218280D02*
D03*
D34*
X77500Y148000D02*
D03*
Y120000D02*
D03*
D35*
X381720Y297500D02*
D03*
X355000D02*
D03*
Y320000D02*
D03*
X381720D02*
D03*
X111720Y407500D02*
D03*
X85000D02*
D03*
D36*
X354400Y344250D02*
D03*
X367100D02*
D03*
X379800D02*
D03*
X392500D02*
D03*
X405200D02*
D03*
X417900D02*
D03*
X430600D02*
D03*
X354400Y400750D02*
D03*
X367100D02*
D03*
X379800D02*
D03*
X392500D02*
D03*
X405200D02*
D03*
X417900D02*
D03*
X430600D02*
D03*
D37*
X472500Y395000D02*
D03*
X491500D02*
D03*
X481986Y425055D02*
D03*
X478014Y327445D02*
D03*
X497014D02*
D03*
X487500Y357500D02*
D03*
D38*
X239746Y274050D02*
D03*
Y261350D02*
D03*
X299746Y274050D02*
D03*
Y261350D02*
D03*
X240254Y248650D02*
D03*
Y235950D02*
D03*
X300254Y248650D02*
D03*
Y235950D02*
D03*
D39*
X77500Y187700D02*
D03*
Y220000D02*
D03*
D40*
X355000Y320000D02*
D03*
Y275000D02*
D03*
X447300Y309800D02*
D03*
X447500Y402500D02*
D03*
X200000Y337500D02*
D03*
X265000Y447750D02*
D03*
X290000Y447500D02*
D03*
X334319Y429868D02*
D03*
X287500Y385000D02*
D03*
X37500Y480000D02*
D03*
X75000Y38010D02*
D03*
X49600D02*
D03*
X477500Y40000D02*
D03*
X462500Y483140D02*
D03*
X480534D02*
D03*
X447500Y372500D02*
D03*
X500000Y285000D02*
D03*
X472500Y275000D02*
D03*
X470000Y200000D02*
D03*
X239600Y447750D02*
D03*
X214200D02*
D03*
X230000Y407500D02*
D03*
X192500D02*
D03*
X367500Y395000D02*
D03*
X370000Y362500D02*
D03*
X316401Y447715D02*
D03*
X500000Y455000D02*
D03*
X281384Y225000D02*
D03*
X299996Y261355D02*
D03*
X367500Y345000D02*
D03*
X423650Y460000D02*
D03*
X290000Y495000D02*
D03*
X95000Y362500D02*
D03*
X259384Y225000D02*
D03*
X233270Y235939D02*
D03*
X298237Y235607D02*
D03*
M02*
