G04*
G04 #@! TF.GenerationSoftware,Altium Limited,Altium Designer,22.5.1 (42)*
G04*
G04 Layer_Color=16711935*
%FSLAX44Y44*%
%MOMM*%
G71*
G04*
G04 #@! TF.SameCoordinates,CF4701AC-517D-4BF5-B978-186F02F9A4D0*
G04*
G04*
G04 #@! TF.FilePolarity,Negative*
G04*
G01*
G75*
%ADD40C,0.8032*%
%ADD49R,2.7032X1.6032*%
%ADD50R,1.4032X2.6032*%
%ADD51R,1.7532X1.2032*%
%ADD52R,1.5032X1.2032*%
%ADD53R,1.4032X2.7032*%
D40*
X355000Y320000D02*
D03*
Y275000D02*
D03*
X447300Y309800D02*
D03*
X447500Y402500D02*
D03*
X200000Y337500D02*
D03*
X265000Y447750D02*
D03*
X290000Y447500D02*
D03*
X334319Y429868D02*
D03*
X287500Y385000D02*
D03*
X37500Y480000D02*
D03*
X75000Y38010D02*
D03*
X49600D02*
D03*
X477500Y40000D02*
D03*
X462500Y483140D02*
D03*
X480534D02*
D03*
X447500Y372500D02*
D03*
X500000Y285000D02*
D03*
X472500Y275000D02*
D03*
X470000Y200000D02*
D03*
X239600Y447750D02*
D03*
X214200D02*
D03*
X230000Y407500D02*
D03*
X192500D02*
D03*
X367500Y395000D02*
D03*
X370000Y362500D02*
D03*
X316401Y447715D02*
D03*
X500000Y455000D02*
D03*
X281384Y225000D02*
D03*
X299996Y261355D02*
D03*
X367500Y345000D02*
D03*
X423650Y460000D02*
D03*
X290000Y495000D02*
D03*
X95000Y362500D02*
D03*
X259384Y225000D02*
D03*
X233270Y235939D02*
D03*
X298237Y235607D02*
D03*
D49*
X108346Y480000D02*
D03*
X37500D02*
D03*
D50*
X480534Y442500D02*
D03*
X462500D02*
D03*
X480534Y483140D02*
D03*
X462500D02*
D03*
D51*
X49600Y38010D02*
D03*
X75000D02*
D03*
X49600Y85000D02*
D03*
X75000D02*
D03*
D52*
X477500Y40000D02*
D03*
Y59934D02*
D03*
D53*
X260594Y228448D02*
D03*
Y268834D02*
D03*
X280000Y228424D02*
D03*
Y268810D02*
D03*
M02*
