G04*
G04 #@! TF.GenerationSoftware,Altium Limited,Altium Designer,22.5.1 (42)*
G04*
G04 Layer_Color=8421504*
%FSLAX44Y44*%
%MOMM*%
G71*
G04*
G04 #@! TF.SameCoordinates,CF4701AC-517D-4BF5-B978-186F02F9A4D0*
G04*
G04*
G04 #@! TF.FilePolarity,Positive*
G04*
G01*
G75*
%ADD16R,0.9000X1.5500*%
%ADD17R,1.3500X2.8000*%
G04:AMPARAMS|DCode=18|XSize=0.65mm|YSize=1.2mm|CornerRadius=0.0488mm|HoleSize=0mm|Usage=FLASHONLY|Rotation=270.000|XOffset=0mm|YOffset=0mm|HoleType=Round|Shape=RoundedRectangle|*
%AMROUNDEDRECTD18*
21,1,0.6500,1.1025,0,0,270.0*
21,1,0.5525,1.2000,0,0,270.0*
1,1,0.0975,-0.5513,-0.2763*
1,1,0.0975,-0.5513,0.2763*
1,1,0.0975,0.5513,0.2763*
1,1,0.0975,0.5513,-0.2763*
%
%ADD18ROUNDEDRECTD18*%
%ADD19R,1.2700X3.6800*%
%ADD20R,3.2121X2.0542*%
%ADD21R,0.9534X2.0542*%
%ADD22R,1.8200X1.4400*%
%ADD23R,1.6000X1.4000*%
%ADD24R,1.4400X1.8200*%
G04:AMPARAMS|DCode=25|XSize=0.65mm|YSize=1.65mm|CornerRadius=0.0488mm|HoleSize=0mm|Usage=FLASHONLY|Rotation=180.000|XOffset=0mm|YOffset=0mm|HoleType=Round|Shape=RoundedRectangle|*
%AMROUNDEDRECTD25*
21,1,0.6500,1.5525,0,0,180.0*
21,1,0.5525,1.6500,0,0,180.0*
1,1,0.0975,-0.2763,0.7763*
1,1,0.0975,0.2763,0.7763*
1,1,0.0975,0.2763,-0.7763*
1,1,0.0975,-0.2763,-0.7763*
%
%ADD25ROUNDEDRECTD25*%
%ADD26R,0.8000X2.0000*%
%ADD27R,2.5000X0.8500*%
%ADD28R,1.5500X0.9000*%
D16*
X317500Y192500D02*
D03*
X285200D02*
D03*
X391350Y460000D02*
D03*
X423650D02*
D03*
X378850Y430000D02*
D03*
X411150D02*
D03*
X301150Y157500D02*
D03*
X268850D02*
D03*
X260000Y192500D02*
D03*
X227700D02*
D03*
X245200Y317500D02*
D03*
X277500D02*
D03*
D17*
X404500Y110000D02*
D03*
X372500D02*
D03*
X388000Y37500D02*
D03*
X420000D02*
D03*
X452000Y147500D02*
D03*
X420000D02*
D03*
Y212500D02*
D03*
X452000D02*
D03*
X362500Y147500D02*
D03*
X394500D02*
D03*
X379500Y212500D02*
D03*
X347500D02*
D03*
D18*
X419750Y65500D02*
D03*
Y75000D02*
D03*
Y84500D02*
D03*
X390250D02*
D03*
Y75000D02*
D03*
Y65500D02*
D03*
X392250Y170500D02*
D03*
Y180000D02*
D03*
Y189500D02*
D03*
X362750D02*
D03*
Y180000D02*
D03*
Y170500D02*
D03*
X449750Y189500D02*
D03*
Y180000D02*
D03*
Y170500D02*
D03*
X420250D02*
D03*
Y180000D02*
D03*
Y189500D02*
D03*
D19*
X214200Y447750D02*
D03*
Y497250D02*
D03*
X239600Y447750D02*
D03*
Y497250D02*
D03*
X265000Y447750D02*
D03*
Y497250D02*
D03*
X290400Y447750D02*
D03*
Y497250D02*
D03*
X315800Y447750D02*
D03*
Y497250D02*
D03*
D20*
X107500Y499250D02*
D03*
D21*
X130500Y435750D02*
D03*
X107500D02*
D03*
X84500D02*
D03*
D22*
X187500Y291720D02*
D03*
Y265000D02*
D03*
X332500Y345000D02*
D03*
Y371720D02*
D03*
Y322500D02*
D03*
Y295780D02*
D03*
X402500D02*
D03*
Y322500D02*
D03*
X425000Y295780D02*
D03*
Y322500D02*
D03*
X447500Y295780D02*
D03*
Y322500D02*
D03*
X472500Y302500D02*
D03*
Y275780D02*
D03*
X162500Y462500D02*
D03*
Y435780D02*
D03*
X212500Y265000D02*
D03*
Y291720D02*
D03*
X187500Y245000D02*
D03*
Y218280D02*
D03*
X212500Y245000D02*
D03*
Y218280D02*
D03*
D23*
X77500Y148000D02*
D03*
Y120000D02*
D03*
D24*
X381720Y297500D02*
D03*
X355000D02*
D03*
Y320000D02*
D03*
X381720D02*
D03*
X111720Y407500D02*
D03*
X85000D02*
D03*
D25*
X354400Y344250D02*
D03*
X367100D02*
D03*
X379800D02*
D03*
X392500D02*
D03*
X405200D02*
D03*
X417900D02*
D03*
X430600D02*
D03*
X354400Y400750D02*
D03*
X367100D02*
D03*
X379800D02*
D03*
X392500D02*
D03*
X405200D02*
D03*
X417900D02*
D03*
X430600D02*
D03*
D26*
X472500Y395000D02*
D03*
X491500D02*
D03*
X481986Y425055D02*
D03*
X478014Y327445D02*
D03*
X497014D02*
D03*
X487500Y357500D02*
D03*
D27*
X239746Y274050D02*
D03*
Y261350D02*
D03*
X299746Y274050D02*
D03*
Y261350D02*
D03*
X240254Y248650D02*
D03*
Y235950D02*
D03*
X300254Y248650D02*
D03*
Y235950D02*
D03*
D28*
X77500Y187700D02*
D03*
Y220000D02*
D03*
M02*
