G04*
G04 #@! TF.GenerationSoftware,Altium Limited,Altium Designer,22.5.1 (42)*
G04*
G04 Layer_Physical_Order=2*
G04 Layer_Color=16711680*
%FSLAX44Y44*%
%MOMM*%
G71*
G04*
G04 #@! TF.SameCoordinates,CF4701AC-517D-4BF5-B978-186F02F9A4D0*
G04*
G04*
G04 #@! TF.FilePolarity,Positive*
G04*
G01*
G75*
%ADD12C,0.2000*%
%ADD41C,0.3000*%
%ADD42C,1.0000*%
%ADD43C,0.6000*%
%ADD44R,2.5000X1.4000*%
%ADD45R,1.2000X2.4000*%
%ADD46R,1.5500X1.0000*%
%ADD47R,1.3000X1.0000*%
%ADD48R,1.2000X2.5000*%
G36*
X515000Y10000D02*
X7500D01*
Y512500D01*
X515000D01*
Y10000D01*
D02*
G37*
%LPC*%
G36*
X291094Y500500D02*
X288906D01*
X286884Y499663D01*
X286300Y499078D01*
X227500D01*
X227500Y499078D01*
X225939Y498768D01*
X224616Y497884D01*
X224616Y497884D01*
X94732Y368000D01*
X93906D01*
X91884Y367163D01*
X90348Y365626D01*
X90284Y365627D01*
X89078Y365895D01*
Y402334D01*
X111230Y424486D01*
X111230Y424486D01*
X112114Y425809D01*
X112424Y427370D01*
X112424Y427370D01*
Y470500D01*
X123346D01*
Y489500D01*
X93346D01*
Y470500D01*
X104268D01*
Y429059D01*
X82116Y406908D01*
X81232Y405584D01*
X80922Y404024D01*
X80922Y404024D01*
Y352500D01*
X80922Y352500D01*
X81232Y350939D01*
X82116Y349616D01*
X89616Y342116D01*
X90939Y341232D01*
X92500Y340922D01*
X92500Y340922D01*
X194090D01*
X194938Y339652D01*
X194500Y338594D01*
Y336406D01*
X195337Y334384D01*
X196431Y333290D01*
Y255000D01*
X196703Y253634D01*
X197477Y252477D01*
X216537Y233416D01*
X217695Y232642D01*
X219061Y232371D01*
X229061D01*
X230155Y231276D01*
X232176Y230439D01*
X234364D01*
X236386Y231276D01*
X237933Y232824D01*
X238770Y234845D01*
Y237033D01*
X237933Y239055D01*
X236386Y240602D01*
X234364Y241439D01*
X232176D01*
X230155Y240602D01*
X229061Y239508D01*
X220539D01*
X203569Y256478D01*
Y333290D01*
X204663Y334384D01*
X205500Y336406D01*
Y338594D01*
X205062Y339652D01*
X205910Y340922D01*
X360922D01*
Y323499D01*
X359889Y323195D01*
X359652Y323183D01*
X358138Y324697D01*
X356270Y325470D01*
Y320000D01*
X355000D01*
Y318730D01*
X349530D01*
X350303Y316862D01*
X350922Y316244D01*
Y278756D01*
X350303Y278138D01*
X349530Y276270D01*
X355000D01*
Y275000D01*
X356270D01*
Y269530D01*
X358138Y270303D01*
X359652Y271817D01*
X359889Y271805D01*
X360922Y271501D01*
Y259189D01*
X190811Y89078D01*
X85250D01*
Y92500D01*
X64750D01*
Y89078D01*
X59850D01*
Y92500D01*
X39350D01*
Y77500D01*
X59850D01*
Y80922D01*
X64750D01*
Y77500D01*
X85250D01*
Y80922D01*
X192500D01*
X192500Y80922D01*
X194061Y81232D01*
X195384Y82116D01*
X367884Y254616D01*
X367884Y254616D01*
X368768Y255939D01*
X369078Y257500D01*
X369078Y257500D01*
Y339701D01*
X370616Y340337D01*
X371200Y340922D01*
X415922D01*
Y107500D01*
X415922Y107500D01*
X416232Y105939D01*
X417116Y104616D01*
X464682Y57050D01*
X464682Y57050D01*
X466005Y56166D01*
X467566Y55856D01*
X468500D01*
Y52434D01*
X486500D01*
Y67434D01*
X468500D01*
Y66427D01*
X467327Y65941D01*
X424078Y109189D01*
Y340922D01*
X427500D01*
X429061Y341232D01*
X430384Y342116D01*
X431268Y343439D01*
X431578Y345000D01*
Y380811D01*
X442152Y391384D01*
X443422Y390858D01*
Y376200D01*
X442837Y375616D01*
X442000Y373594D01*
Y371406D01*
X442837Y369384D01*
X443322Y368900D01*
Y313600D01*
X442637Y312915D01*
X441800Y310894D01*
Y308706D01*
X442637Y306684D01*
X443222Y306100D01*
Y270200D01*
X443222Y270200D01*
X443532Y268639D01*
X444416Y267316D01*
X465922Y245811D01*
Y203700D01*
X465337Y203116D01*
X464500Y201094D01*
Y198906D01*
X465337Y196884D01*
X466884Y195337D01*
X468906Y194500D01*
X471094D01*
X473116Y195337D01*
X474663Y196884D01*
X475500Y198906D01*
Y201094D01*
X474663Y203116D01*
X474078Y203700D01*
Y247500D01*
X474078Y247500D01*
X473768Y249061D01*
X472884Y250384D01*
X451378Y271889D01*
Y306100D01*
X451963Y306684D01*
X452800Y308706D01*
Y310894D01*
X451963Y312915D01*
X451478Y313400D01*
Y368700D01*
X452163Y369384D01*
X453000Y371406D01*
Y373594D01*
X452163Y375616D01*
X451578Y376200D01*
Y398800D01*
X452163Y399384D01*
X453000Y401406D01*
Y403594D01*
X452163Y405616D01*
X450616Y407163D01*
X448594Y408000D01*
X446406D01*
X445634Y407680D01*
X444578Y408386D01*
Y416311D01*
X456257Y427990D01*
X458000D01*
X458000Y427990D01*
X458052Y428000D01*
X471000D01*
Y428000D01*
X472034D01*
Y428000D01*
X489034D01*
Y450910D01*
X490304Y451588D01*
X490837Y451232D01*
X492398Y450922D01*
X496300D01*
X496884Y450337D01*
X498906Y449500D01*
X501094D01*
X503116Y450337D01*
X504663Y451884D01*
X505500Y453906D01*
Y456094D01*
X504663Y458116D01*
X503116Y459663D01*
X501094Y460500D01*
X498906D01*
X496884Y459663D01*
X496300Y459078D01*
X494087D01*
X491282Y461884D01*
X489959Y462768D01*
X488398Y463078D01*
X488398Y463078D01*
X452649D01*
X452649Y463078D01*
X451088Y462768D01*
X449765Y461884D01*
X439674Y451793D01*
X320101D01*
X319516Y452377D01*
X317495Y453214D01*
X315307D01*
X313285Y452377D01*
X311738Y450830D01*
X311419Y450058D01*
X310173Y449811D01*
X300384Y459600D01*
X299061Y460484D01*
X297500Y460794D01*
X297500Y460794D01*
X273966D01*
X273966Y460794D01*
X272405Y460484D01*
X271082Y459600D01*
X271082Y459600D01*
X264732Y453250D01*
X263906D01*
X261884Y452413D01*
X260337Y450866D01*
X259500Y448844D01*
Y446656D01*
X260337Y444635D01*
X261884Y443087D01*
X263906Y442250D01*
X266094D01*
X268116Y443087D01*
X269663Y444635D01*
X270500Y446656D01*
Y447482D01*
X275655Y452638D01*
X285563D01*
X286089Y451368D01*
X285337Y450616D01*
X284500Y448594D01*
Y446406D01*
X285337Y444384D01*
X285922Y443800D01*
Y427500D01*
X285922Y427500D01*
X286232Y425939D01*
X287116Y424616D01*
X309616Y402116D01*
X309616Y402116D01*
X310939Y401232D01*
X312500Y400922D01*
X364001D01*
X364305Y399889D01*
X364317Y399652D01*
X362803Y398138D01*
X362102Y396444D01*
D01*
X362030Y396270D01*
X372970D01*
X372898Y396444D01*
D01*
X372197Y398138D01*
X370683Y399652D01*
X370695Y399889D01*
X370999Y400922D01*
X401300D01*
X401884Y400337D01*
X403906Y399500D01*
X406094D01*
X408116Y400337D01*
X409663Y401884D01*
X410500Y403906D01*
Y406094D01*
X409663Y408116D01*
X408116Y409663D01*
X406094Y410500D01*
X403906D01*
X401884Y409663D01*
X401300Y409078D01*
X314189D01*
X294078Y429189D01*
Y443800D01*
X294663Y444384D01*
X295500Y446406D01*
Y448594D01*
X294663Y450616D01*
X293911Y451368D01*
X294437Y452638D01*
X295811D01*
X321464Y426984D01*
X322787Y426100D01*
X324348Y425790D01*
X324348Y425790D01*
X330619D01*
X331203Y425206D01*
X333225Y424368D01*
X335413D01*
X337434Y425206D01*
X338981Y426753D01*
X339819Y428774D01*
Y430962D01*
X338981Y432984D01*
X337434Y434531D01*
X335413Y435368D01*
X333225D01*
X331203Y434531D01*
X330619Y433947D01*
X326037D01*
X318497Y441487D01*
X318745Y442732D01*
X319516Y443052D01*
X320101Y443636D01*
X441363D01*
X441363Y443636D01*
X442924Y443947D01*
X444247Y444831D01*
X452827Y453410D01*
X454000Y452924D01*
Y436033D01*
X453007Y435836D01*
X451684Y434952D01*
X437616Y420884D01*
X436732Y419561D01*
X436422Y418000D01*
X436422Y418000D01*
Y397189D01*
X424616Y385384D01*
X423732Y384061D01*
X423422Y382500D01*
X423422Y382500D01*
Y349078D01*
X371200D01*
X370616Y349663D01*
X368594Y350500D01*
X366406D01*
X364384Y349663D01*
X363800Y349078D01*
X94189D01*
X89078Y354189D01*
Y359105D01*
X90284Y359373D01*
X90348Y359374D01*
X91884Y357837D01*
X93906Y357000D01*
X96094D01*
X98116Y357837D01*
X99663Y359384D01*
X100500Y361406D01*
Y362232D01*
X229189Y490922D01*
X286300D01*
X286884Y490337D01*
X288906Y489500D01*
X291094D01*
X293116Y490337D01*
X294663Y491884D01*
X295500Y493906D01*
Y496094D01*
X294663Y498116D01*
X293116Y499663D01*
X291094Y500500D01*
D02*
G37*
G36*
X481804Y497680D02*
Y484410D01*
X489074D01*
Y497680D01*
X481804D01*
D02*
G37*
G36*
X461230D02*
X453960D01*
Y484410D01*
X461230D01*
Y497680D01*
D02*
G37*
G36*
X403650Y484078D02*
X403650Y484078D01*
X247500D01*
X247500Y484078D01*
X245939Y483768D01*
X244616Y482884D01*
X214982Y453250D01*
X213106D01*
X211084Y452413D01*
X209537Y450866D01*
X208700Y448844D01*
Y446656D01*
X209537Y444635D01*
X211084Y443087D01*
X213106Y442250D01*
X215294D01*
X217316Y443087D01*
X218863Y444635D01*
X219559Y446316D01*
X219634Y446366D01*
X249189Y475922D01*
X401961D01*
X418150Y459732D01*
Y458906D01*
X418987Y456884D01*
X420535Y455337D01*
X422556Y454500D01*
X424744D01*
X426766Y455337D01*
X428313Y456884D01*
X429150Y458906D01*
Y461094D01*
X428313Y463116D01*
X426766Y464663D01*
X424744Y465500D01*
X423918D01*
X406534Y482884D01*
X405211Y483768D01*
X404952Y483819D01*
X403650Y484078D01*
D02*
G37*
G36*
X52540Y489540D02*
X38770D01*
Y481270D01*
X52540D01*
Y489540D01*
D02*
G37*
G36*
X36230D02*
X22460D01*
Y481270D01*
X36230D01*
Y489540D01*
D02*
G37*
G36*
X52540Y478730D02*
X38770D01*
Y470460D01*
X52540D01*
Y478730D01*
D02*
G37*
G36*
X36230D02*
X22460D01*
Y470460D01*
X36230D01*
Y478730D01*
D02*
G37*
G36*
X489074Y481870D02*
X481804D01*
Y468600D01*
X489074D01*
Y481870D01*
D02*
G37*
G36*
X461230D02*
X453960D01*
Y468600D01*
X461230D01*
Y481870D01*
D02*
G37*
G36*
X471994Y497680D02*
X471040D01*
X470724Y497680D01*
X463770D01*
Y483140D01*
Y468600D01*
X470724D01*
X471040Y468600D01*
X471994D01*
X472310Y468600D01*
X479264D01*
Y483140D01*
Y497680D01*
X472310D01*
X471994Y497680D01*
D02*
G37*
G36*
X230000Y415065D02*
X192500D01*
X190542Y414807D01*
X188718Y414051D01*
X187151Y412849D01*
X185949Y411282D01*
X185193Y409458D01*
X184935Y407500D01*
X185193Y405542D01*
X185949Y403718D01*
X187151Y402151D01*
X188718Y400949D01*
X190542Y400193D01*
X192500Y399935D01*
X230000D01*
X231958Y400193D01*
X233782Y400949D01*
X235349Y402151D01*
X236551Y403718D01*
X237307Y405542D01*
X237565Y407500D01*
X237307Y409458D01*
X236551Y411282D01*
X235349Y412849D01*
X233782Y414051D01*
X231958Y414807D01*
X230000Y415065D01*
D02*
G37*
G36*
X372970Y393730D02*
X368770D01*
Y389530D01*
X370638Y390303D01*
X372197Y391862D01*
X372970Y393730D01*
D02*
G37*
G36*
X366230D02*
X362030D01*
X362803Y391862D01*
X364362Y390303D01*
X366230Y389530D01*
Y393730D01*
D02*
G37*
G36*
X240694Y453250D02*
X238506D01*
X236485Y452413D01*
X234937Y450866D01*
X234100Y448844D01*
Y446656D01*
X234937Y444635D01*
X235522Y444050D01*
Y422900D01*
X235522Y422900D01*
X235832Y421339D01*
X236716Y420016D01*
X274042Y382690D01*
X275365Y381806D01*
X276926Y381496D01*
X276926Y381496D01*
X283226D01*
X284384Y380337D01*
X286406Y379500D01*
X288594D01*
X290616Y380337D01*
X292163Y381884D01*
X293000Y383906D01*
Y386094D01*
X292163Y388116D01*
X290616Y389663D01*
X288594Y390500D01*
X286406D01*
X284384Y389663D01*
X284374Y389652D01*
X278615D01*
X243678Y424589D01*
Y444050D01*
X244263Y444635D01*
X245100Y446656D01*
Y448844D01*
X244263Y450866D01*
X242715Y452413D01*
X240694Y453250D01*
D02*
G37*
G36*
X371270Y367970D02*
Y363770D01*
X375470D01*
X374697Y365638D01*
X373138Y367197D01*
X371270Y367970D01*
D02*
G37*
G36*
X368730D02*
X366862Y367197D01*
D01*
X365303Y365638D01*
X364530Y363770D01*
X368730D01*
Y367970D01*
D02*
G37*
G36*
X375470Y361230D02*
X371270D01*
Y357030D01*
X373138Y357803D01*
X374697Y359362D01*
X375470Y361230D01*
D02*
G37*
G36*
X368730D02*
X364530D01*
X365303Y359362D01*
X366862Y357803D01*
X368730Y357030D01*
Y361230D01*
D02*
G37*
G36*
X353730Y325470D02*
X351862Y324697D01*
X350303Y323138D01*
X349530Y321270D01*
X353730D01*
Y325470D01*
D02*
G37*
G36*
X501270Y290470D02*
Y286270D01*
X505470D01*
X504697Y288138D01*
X503138Y289697D01*
X501270Y290470D01*
D02*
G37*
G36*
X498730D02*
X496862Y289697D01*
X495303Y288138D01*
X494460Y286102D01*
Y285228D01*
X488311Y279078D01*
X476256D01*
X475638Y279697D01*
X473770Y280470D01*
Y275000D01*
Y269530D01*
X475638Y270303D01*
X476256Y270922D01*
X490000D01*
X490000Y270922D01*
X491561Y271232D01*
X492884Y272116D01*
X500228Y279460D01*
X501102D01*
X503138Y280303D01*
X504697Y281862D01*
X505470Y283730D01*
X500000D01*
Y285000D01*
X498730D01*
Y290470D01*
D02*
G37*
G36*
X471230Y280470D02*
X469362Y279697D01*
X467803Y278138D01*
X467030Y276270D01*
X471230D01*
Y280470D01*
D02*
G37*
G36*
Y273730D02*
X467030D01*
X467803Y271862D01*
X469362Y270303D01*
X471230Y269530D01*
Y273730D01*
D02*
G37*
G36*
X353730D02*
X349530D01*
X350303Y271862D01*
X351862Y270303D01*
X353730Y269530D01*
Y273730D01*
D02*
G37*
G36*
X289190Y289888D02*
X289190Y289888D01*
X271070D01*
X269509Y289578D01*
X268186Y288694D01*
X268186Y288694D01*
X263327Y283834D01*
X252094D01*
Y253834D01*
X269094D01*
Y278067D01*
X270327Y279299D01*
X271500Y278813D01*
Y253810D01*
X274784D01*
X276029Y253567D01*
X276339Y252007D01*
X277223Y250683D01*
X283310Y244597D01*
X282824Y243424D01*
X271500D01*
Y213424D01*
X288500D01*
Y237748D01*
X289673Y238234D01*
X292737Y235170D01*
Y234513D01*
X293574Y232491D01*
X295121Y230944D01*
X297143Y230107D01*
X299331D01*
X301352Y230944D01*
X302899Y232491D01*
X303737Y234513D01*
Y236701D01*
X302899Y238722D01*
X301352Y240270D01*
X299331Y241107D01*
X298335D01*
X286806Y252637D01*
X287292Y253810D01*
X288500D01*
Y279073D01*
X289673Y279559D01*
X295922Y273311D01*
Y265058D01*
X295333Y264470D01*
X294496Y262449D01*
Y260261D01*
X295333Y258239D01*
X296880Y256692D01*
X298902Y255854D01*
X301090D01*
X303111Y256692D01*
X304659Y258239D01*
X305496Y260261D01*
Y262449D01*
X304659Y264470D01*
X304078Y265050D01*
Y275000D01*
X304078Y275000D01*
X303768Y276561D01*
X302884Y277884D01*
X302884Y277884D01*
X292074Y288694D01*
X290751Y289578D01*
X290492Y289629D01*
X289190Y289888D01*
D02*
G37*
G36*
X269094Y243448D02*
X252094D01*
Y213448D01*
X269094D01*
Y243448D01*
D02*
G37*
G36*
X73730Y45550D02*
X64710D01*
Y42088D01*
X59890D01*
Y45550D01*
X50870D01*
Y38010D01*
Y30470D01*
X59890D01*
Y33932D01*
X64710D01*
Y30470D01*
X73730D01*
Y38010D01*
Y45550D01*
D02*
G37*
G36*
X486540Y47540D02*
X478770D01*
Y41270D01*
X486540D01*
Y47540D01*
D02*
G37*
G36*
X476230D02*
X468460D01*
Y41270D01*
X476230D01*
Y47540D01*
D02*
G37*
G36*
X85290Y45550D02*
X76270D01*
Y39280D01*
X85290D01*
Y45550D01*
D02*
G37*
G36*
X48330D02*
X39310D01*
Y39280D01*
X48330D01*
Y45550D01*
D02*
G37*
G36*
X486540Y38730D02*
X478770D01*
Y32460D01*
X486540D01*
Y38730D01*
D02*
G37*
G36*
X476230D02*
X468460D01*
Y32460D01*
X476230D01*
Y38730D01*
D02*
G37*
G36*
X85290Y36740D02*
X76270D01*
Y30470D01*
X85290D01*
Y36740D01*
D02*
G37*
G36*
X48330D02*
X39310D01*
Y30470D01*
X48330D01*
Y36740D01*
D02*
G37*
%LPD*%
D12*
X200000Y255000D02*
Y337500D01*
X219061Y235939D02*
X233270D01*
X200000Y255000D02*
X219061Y235939D01*
D41*
X355000Y275000D02*
Y320000D01*
X447300Y309800D02*
X447400Y309900D01*
Y372400D01*
X447300Y270200D02*
Y309800D01*
X447400Y372400D02*
X447500Y372500D01*
Y402500D01*
X447300Y270200D02*
X470000Y247500D01*
X427500Y382500D02*
X440500Y395500D01*
Y418000D02*
X454568Y432068D01*
X440500Y395500D02*
Y418000D01*
X85000Y352500D02*
X92500Y345000D01*
X367500D01*
X441363Y447715D02*
X452649Y459000D01*
X316401Y447715D02*
X441363D01*
X452649Y459000D02*
X488398D01*
X273966Y456716D02*
X297500D01*
X265000Y447750D02*
X273966Y456716D01*
X297500D02*
X324348Y429868D01*
X334319D01*
X290000Y427500D02*
Y447500D01*
X239600Y422900D02*
Y447750D01*
X276926Y385574D02*
X286926D01*
X239600Y422900D02*
X276926Y385574D01*
X286926D02*
X287500Y385000D01*
X290000Y427500D02*
X312500Y405000D01*
X405000D01*
X247500Y480000D02*
X403650D01*
X216750Y449250D02*
X247500Y480000D01*
X403650D02*
X423650Y460000D01*
X85000Y352500D02*
Y404024D01*
X472500Y275000D02*
X490000D01*
X500000Y285000D01*
X470000Y200000D02*
Y247500D01*
X420000Y345000D02*
X427500D01*
X467566Y59934D02*
X477500D01*
X420000Y107500D02*
Y345000D01*
Y107500D02*
X467566Y59934D01*
X367500Y345000D02*
X420000D01*
X427500D02*
Y382500D01*
X108346Y427370D02*
Y480000D01*
X85000Y404024D02*
X108346Y427370D01*
X216512Y449250D02*
X216750D01*
X215012Y447750D02*
X216512Y449250D01*
X214200Y447750D02*
X215012D01*
X365000Y341743D02*
X367500Y344243D01*
Y345000D01*
X488398Y459000D02*
X492398Y455000D01*
X500000D01*
X462500Y442500D02*
X480534D01*
X462500Y436568D02*
Y442500D01*
X454568Y432068D02*
X458000D01*
X462500Y436568D01*
X192500Y85000D02*
X365000Y257500D01*
Y341743D01*
X95000Y362500D02*
X227500Y495000D01*
X290000D01*
X75000Y85000D02*
X192500D01*
X280107Y253567D02*
X298068Y235607D01*
X298237D01*
X260594Y275334D02*
X271070Y285810D01*
X289190D01*
X300000Y261359D02*
Y275000D01*
X280000Y268810D02*
X280107Y268703D01*
Y253567D02*
Y268703D01*
X299996Y261355D02*
X300000Y261359D01*
X49600Y85000D02*
X75000D01*
Y38010D02*
X75510Y37500D01*
X49600Y38010D02*
X75000D01*
X289190Y285810D02*
X300000Y275000D01*
X260594Y268834D02*
Y275334D01*
D42*
X192500Y407500D02*
X230000D01*
D43*
X355000Y320000D02*
D03*
Y275000D02*
D03*
X447300Y309800D02*
D03*
X447500Y402500D02*
D03*
X200000Y337500D02*
D03*
X265000Y447750D02*
D03*
X290000Y447500D02*
D03*
X334319Y429868D02*
D03*
X287500Y385000D02*
D03*
X37500Y480000D02*
D03*
X75000Y38010D02*
D03*
X49600D02*
D03*
X477500Y40000D02*
D03*
X462500Y483140D02*
D03*
X480534D02*
D03*
X447500Y372500D02*
D03*
X500000Y285000D02*
D03*
X472500Y275000D02*
D03*
X470000Y200000D02*
D03*
X239600Y447750D02*
D03*
X214200D02*
D03*
X230000Y407500D02*
D03*
X192500D02*
D03*
X405000Y405000D02*
D03*
X367500Y395000D02*
D03*
X370000Y362500D02*
D03*
X316401Y447715D02*
D03*
X500000Y455000D02*
D03*
X281384Y225000D02*
D03*
X299996Y261355D02*
D03*
X367500Y345000D02*
D03*
X423650Y460000D02*
D03*
X290000Y495000D02*
D03*
X95000Y362500D02*
D03*
X259384Y225000D02*
D03*
X233270Y235939D02*
D03*
X298237Y235607D02*
D03*
D44*
X108346Y480000D02*
D03*
X37500D02*
D03*
D45*
X480534Y442500D02*
D03*
X462500D02*
D03*
X480534Y483140D02*
D03*
X462500D02*
D03*
D46*
X49600Y38010D02*
D03*
X75000D02*
D03*
X49600Y85000D02*
D03*
X75000D02*
D03*
D47*
X477500Y40000D02*
D03*
Y59934D02*
D03*
D48*
X260594Y228448D02*
D03*
Y268834D02*
D03*
X280000Y228424D02*
D03*
Y268810D02*
D03*
M02*
