M48
;Layer_Color=9474304
;FILE_FORMAT=4:4
METRIC,LZ
;TYPE=PLATED
T1F00S00C0.3000
%
T01
X000496Y0003801
X00075
X004775Y0004
X0047Y002
X004725Y00275
X005Y00285
X004473Y003098
X004475Y003725
Y004025
X004625Y0048314
X00480534
X005Y00455
X0042365Y0046
X00405Y00405
X003675Y00395
X0037Y003625
X003675Y00345
X00355Y0032
Y00275
X00299996Y00261355
X00298237Y00235607
X00281384Y00225
X00259384
X0023327Y00235939
X002Y003375
X001925Y004075
X0023
X002396Y0044775
X00265
X0029Y004475
X00316401Y00447715
X00334319Y00429868
X002875Y00385
X0029Y00495
X002142Y0044775
X00095Y003625
X000375Y0048
M30
